<svg xmlns="http://www.w3.org/2000/svg" width="122" height="37" viewBox="0 0 122 37" fill="none"><g clip-path="url(#clip0_4055_11143)"><path d="M9.00506 33.2918H3.47481L2.18123 36.7772H0L4.92991 23.8001H7.54853L12.4799 36.7772H10.2944L9.00363 33.2918H9.00506ZM8.26036 31.3081L6.24208 25.877L4.22094 31.3081H8.26036Z" fill="white"></path><path d="M17.5599 22.5038H15.4858V36.7772H17.5599V22.5038Z" fill="white"></path><path d="M27.2568 26.4159V28.5481C27.0752 28.5292 26.9094 28.5117 26.6378 28.5117C24.7625 28.5117 23.3274 29.5866 23.3274 32.1077V36.7786H21.272V26.5819H23.3274V28.6049C23.9277 27.1776 25.0741 26.362 26.6564 26.362C26.9094 26.362 27.111 26.3809 27.2568 26.4173" fill="white"></path><path d="M39.2349 26.5805V36.7786H37.1795V35.0716C36.4519 36.2397 35.2498 37 33.6847 37C31.0117 37 29.0649 34.7949 29.0649 31.6795C29.0649 28.5642 31.0489 26.3591 33.6689 26.3591C35.2512 26.3591 36.4534 27.1558 37.1795 28.3238V26.5805H39.2349ZM37.1966 31.6795C37.1966 29.7337 35.8687 28.3617 34.122 28.3617C32.3753 28.3617 31.1389 29.7322 31.1389 31.6795C31.1389 33.6268 32.3925 34.9974 34.122 34.9974C35.8516 34.9974 37.1966 33.6458 37.1966 31.6795Z" fill="white"></path><path d="M58.03 30.2333V36.7786H55.9745V30.6789C55.9745 29.1599 55.3742 28.3632 53.9906 28.3632C52.3711 28.3632 51.5363 29.6405 51.5363 31.4946L51.5535 36.7786H49.4809V30.6789C49.4809 29.1599 48.8805 28.3632 47.4969 28.3632C45.8774 28.3632 45.0584 29.6405 45.0584 31.4946V36.7786H43.0029V26.5819H45.0584V28.2132C45.7488 27.0451 46.7322 26.3591 48.1687 26.3591C49.6981 26.3591 50.7702 27.1179 51.2633 28.4913C51.9351 27.1762 53.0629 26.3591 54.6466 26.3591C56.7564 26.3591 58.03 27.8053 58.03 30.2333Z" fill="white"></path><path d="M70.0938 34.7935V36.7786H61.6533V34.7935L67.3637 28.5656H61.9792V26.5819H70.0023V28.5656L64.272 34.7935H70.0938Z" fill="white"></path><path d="M92.5576 12.8271C95.0862 13.6806 97.5605 14.6112 99.9775 15.6104C102.393 14.6112 104.866 13.682 107.392 12.8285C109.806 13.9719 112.16 15.1851 114.451 16.4609C114.612 15.0511 114.772 13.6383 114.932 12.227C112.569 10.8536 110.142 9.54857 107.646 8.31204C105.032 9.24854 102.473 10.2608 99.9775 11.3473C97.4804 10.2608 94.9218 9.24709 92.3046 8.31058C89.8061 9.54712 87.3719 10.8536 85.0063 12.2256C85.1778 13.6354 85.3523 15.0453 85.5238 16.4551C87.8079 15.1793 90.1534 13.9689 92.5591 12.8256" fill="white"></path><path d="M99.9761 5.08743C102.591 6.08802 105.149 7.1658 107.649 8.31349C107.728 6.8949 107.809 5.4763 107.888 4.05771C105.313 2.8168 102.676 1.65163 99.9775 0.56365C97.2775 1.65163 94.6417 2.8168 92.0688 4.05625C92.1488 5.47485 92.2289 6.89344 92.3075 8.31204C94.8046 7.16434 97.3632 6.08656 99.9761 5.08743Z" fill="white"></path><path d="M93.1509 23.3325C90.9354 24.5516 88.7842 25.8333 86.7002 27.1732L87.2119 31.4028C89.2159 30.1604 91.2799 28.9749 93.4039 27.8476C94.8548 28.4098 96.2741 29.0098 97.6778 29.6274V36.7786H102.246V29.639C103.657 29.0186 105.082 28.4141 106.538 27.8505C107.22 28.2102 107.895 28.5773 108.565 28.9487C109.989 29.7424 111.385 30.5624 112.753 31.4086C112.913 29.9973 113.074 28.586 113.234 27.1761C111.154 25.8362 109.007 24.5545 106.796 23.3355C104.462 24.2865 102.189 25.309 99.9748 26.3955C97.7607 25.309 95.4837 24.2851 93.1495 23.334" fill="white"></path><path d="M114.444 16.4609C111.919 17.2591 109.449 18.133 107.037 19.0797C104.746 17.8562 102.389 16.6984 99.9721 15.6118C97.5565 16.6984 95.2023 17.8562 92.911 19.0797C90.4925 18.1315 88.014 17.2576 85.4811 16.4609C83.197 17.8242 80.9829 19.2501 78.8345 20.7371C79.0847 22.1339 79.3377 23.5306 79.5878 24.9288C81.659 23.5452 83.793 22.2198 85.99 20.9541C88.4285 21.6736 90.817 22.4689 93.1511 23.3325C95.3667 22.2023 97.6394 21.1333 99.9707 20.1342C102.303 21.1333 104.579 22.2023 106.797 23.334C109.124 22.4689 111.504 21.6736 113.934 20.9527C116.144 22.2213 118.291 23.5496 120.373 24.9347C120.612 23.535 120.852 22.1368 121.091 20.7371C118.945 19.2501 116.727 17.8242 114.444 16.4609Z" fill="white"></path><path d="M3.12606 2.68281C3.91079 2.68281 4.34246 2.21528 4.34246 1.36471C4.34246 0.51413 3.91079 0.0393238 3.12606 0.0393238C2.34134 0.0393238 1.90967 0.509761 1.90967 1.36471C1.90967 2.21965 2.34277 2.68281 3.12606 2.68281Z" fill="white"></path><path d="M62.9513 12.0464H56.9637C56.4462 12.0464 56.0417 11.9008 55.7287 11.5993C55.4214 11.3007 55.2698 10.9045 55.2698 10.389V4.05042H53.213V13.9995C53.213 14.735 53.0572 15.3307 52.7484 15.7706C52.454 16.193 52.0695 16.3983 51.5763 16.3983H51.0703V18.3791H51.6121C52.7756 18.3791 53.689 17.9698 54.3265 17.163C54.9525 16.3706 55.2698 15.2739 55.2698 13.9034V13.3689C55.6129 13.7082 56.0803 13.9384 56.6692 13.9893C56.8722 14.0068 57.2781 14.0272 57.4839 14.0272H65.1011V0H62.9513V12.0464Z" fill="white"></path><path d="M70.0936 0H67.9424V14.0272H70.0936V0Z" fill="white"></path><path d="M44.8038 3.84943C43.3915 3.84943 42.2337 4.37376 41.359 5.40494C40.4928 6.42883 40.0525 7.75276 40.0525 9.34176C40.0525 10.4268 40.2183 11.3342 40.5485 12.0464H5.88617C5.36873 12.0464 4.96279 11.9008 4.65119 11.5978C4.34244 11.2992 4.19093 10.9031 4.19093 10.3875V4.05188H2.13406V14.001C2.13406 14.738 1.97826 15.3322 1.67094 15.772C1.37649 16.1944 0.991986 16.3998 0.497423 16.3998H0V18.3806H0.541733C1.70239 18.3777 2.6129 17.9698 3.24897 17.1644C3.87504 16.3721 4.19093 15.2768 4.19093 13.9063V13.3703C4.53398 13.7097 5.00281 13.9398 5.59029 13.9908C5.79469 14.0083 6.20063 14.0287 6.40503 14.0287H44.029C45.5728 14.0287 46.8678 13.5626 47.8812 12.6436C48.9018 11.7172 49.4192 10.4297 49.4192 8.81452C49.4192 7.1993 48.9875 6.05161 48.1371 5.17481C47.2866 4.29657 46.1645 3.85089 44.8038 3.85089M46.3632 11.139C45.7729 11.742 44.9896 12.0479 44.0305 12.0479H42.7812C42.3981 11.4536 42.2066 10.5448 42.2066 9.34321C42.2066 8.25524 42.4596 7.38136 42.9599 6.74634C43.453 6.1186 44.0576 5.81275 44.8052 5.81275C45.5528 5.81275 46.1202 6.07054 46.569 6.60361C47.0222 7.13813 47.2494 7.87655 47.2494 8.79558C47.2494 9.76122 46.9607 10.5273 46.3632 11.139Z" fill="white"></path></g><defs><clipPath id="clip0_4055_11143"><rect width="122" height="37" fill="white"></rect></clipPath></defs></svg>